<svg id="Capa_1" enable-background="new 0 0 512 512" height="512" viewBox="0 0 512 512" width="512" xmlns="http://www.w3.org/2000/svg"><g><path d="m181 0v76.82c0 35.2-11.777 69.814-34.043 100.093-17.402 23.672-22.266 43.477-14.458 58.887 9.771 19.336 33.267 20.2 33.501 20.2 42.026 0 85.195-14.209 85.269-14.238 28.14-9.316 54.492-12.158 73.726-14.224 24.932-2.695 41.396-4.468 47.695-18.809 5.903-13.389-3.94-26.777-7.646-31.816-22.267-30.278-34.044-64.892-34.044-100.093v-76.82z"/><path d="m331 512v-76.82c0-35.2 11.777-69.814 34.043-100.093 17.402-23.672 22.266-43.477 14.458-58.887-9.771-19.336-33.267-20.2-33.501-20.2-42.026 0-85.195 14.209-85.269 14.238-28.14 9.316-54.492 12.158-73.726 14.224-24.932 2.695-41.396 4.468-47.695 18.809-5.903 13.389 3.94 26.777 7.646 31.816 22.267 30.278 34.044 64.892 34.044 100.093v76.82z"/><path d="m97.606 142.24c-23.95 33.311-36.606 72.642-36.606 113.76s12.656 80.449 36.606 113.76l24.346-17.52c-20.244-28.169-30.952-61.45-30.952-96.24s10.708-68.071 30.952-96.24z"/><path d="m414.394 142.24-24.346 17.52c20.244 28.169 30.952 61.45 30.952 96.24s-10.708 68.071-30.952 96.24l24.346 17.52c23.95-33.311 36.606-72.642 36.606-113.76s-12.656-80.449-36.606-113.76z"/></g></svg>