<?xml version="1.0" encoding="iso-8859-1"?>
<!-- Generator: Adobe Illustrator 18.1.1, SVG Export Plug-In . SVG Version: 6.00 Build 0)  -->
<svg version="1.1" id="Capa_1" xmlns="http://www.w3.org/2000/svg" xmlns:xlink="http://www.w3.org/1999/xlink" x="0px" y="0px"
	 viewBox="0 0 25.8 25.8" style="enable-background:new 0 0 25.8 25.8;" xml:space="preserve">
<g>
	<path style="fill:#030104;" d="M15.988,4.37c0.121-0.606,0.556-1.034,0.975-0.952c0.419,0.077,0.66,0.632,0.54,1.24
		c-0.121,0.606-0.557,1.033-0.975,0.953C16.111,5.53,15.866,4.977,15.988,4.37z M18.026,6.83c0.348-0.007,0.617-0.421,0.605-0.921
		c-0.011-0.504-0.3-0.902-0.646-0.896c-0.347,0.008-0.617,0.422-0.606,0.924C17.391,6.44,17.682,6.839,18.026,6.83z M14.903,4.865
		c0.525-0.001,0.949-0.632,0.949-1.407c0-0.777-0.426-1.408-0.95-1.407c-0.523-0.001-0.947,0.629-0.948,1.406
		C13.953,4.233,14.379,4.864,14.903,4.865z M11.091,6.013c-1.079,0-3.11,0.266-3.11,2.595c0,3.374,4.094,3.347,4.094,7.062
		c0,2.969-3.193,3.352-3.08,6.722C9.056,24.204,9.763,25.8,12.7,25.8c2.002,0,3.156-1.914,3.156-3.643
		c0-4.706,3.109-6.115,2.956-10.707C18.658,6.858,13.108,6.013,11.091,6.013z M9.006,4.812c0.89-0.141,1.441-1.33,1.236-2.653
		C10.035,0.835,9.148-0.126,8.26,0.014s-1.441,1.33-1.235,2.654C7.232,3.993,8.117,4.953,9.006,4.812z M12.356,4.464
		c0.646-0.063,1.094-0.869,1.002-1.805c-0.091-0.937-0.688-1.644-1.334-1.581c-0.646,0.063-1.092,0.87-1.003,1.805
		C11.114,3.818,11.711,4.525,12.356,4.464z"/>
</g>
<g>
</g>
<g>
</g>
<g>
</g>
<g>
</g>
<g>
</g>
<g>
</g>
<g>
</g>
<g>
</g>
<g>
</g>
<g>
</g>
<g>
</g>
<g>
</g>
<g>
</g>
<g>
</g>
<g>
</g>
</svg>
