<?xml version="1.0" encoding="iso-8859-1"?>
<!-- Generator: Adobe Illustrator 17.1.0, SVG Export Plug-In . SVG Version: 6.00 Build 0)  -->
<!DOCTYPE svg PUBLIC "-//W3C//DTD SVG 1.1//EN" "http://www.w3.org/Graphics/SVG/1.1/DTD/svg11.dtd">
<svg version="1.1" id="Capa_1" xmlns="http://www.w3.org/2000/svg" xmlns:xlink="http://www.w3.org/1999/xlink" x="0px" y="0px"
	 viewBox="0 0 205.159 205.159" style="enable-background:new 0 0 205.159 205.159;" xml:space="preserve">
<path d="M87.474,82.199c2.72-5.537,6.446-13.12,7.341-27.884c1.382-22.807,1.398-40.503,1.398-40.68c0-1.88-1.31-3.507-3.147-3.908
	L48.905,0.092c-1.218-0.266-2.488,0.051-3.438,0.856c-0.95,0.805-1.471,2.007-1.409,3.251c0.071,1.426,1.771,35.116,3.854,51.085
	c0.657,5.034,1.648,10.131,2.607,15.061c2.059,10.583,4.003,20.578,2.104,27.119c-0.51,1.756-1.046,3.502-1.582,5.245
	c-2.799,9.113-5.694,18.537-4.754,29.189c1.05,11.902,6.517,31.536,8.534,38.097c0.903,2.935-0.834,6.652-1.657,7.974
	c-2.882,3.654-9.249,12.29-9.249,17.278l-0.003,2.887c-0.004,1.875,0.722,3.638,2.046,4.965c1.325,1.328,3.089,2.06,4.967,2.06
	h27.38c2.052,0,3.994-0.893,5.328-2.45c1.333-1.556,1.917-3.609,1.603-5.635c-1.163-7.488-2.892-13.631-5.14-18.26
	c-2.963-6.102,0.534-37.051,5.271-46.642c4.148-8.399,2.175-20.662,0.59-30.515c-0.715-4.444-1.39-8.642-1.289-11.269
	C84.772,87.698,85.906,85.391,87.474,82.199z M70.063,107.721c-8.509,0-11.366-5.602-11.688-8.564
	c-0.179-1.647,1.011-3.128,2.658-3.307c1.631-0.183,3.093,0.983,3.3,2.601c0.094,0.57,0.803,3.27,5.73,3.27
	c4.01,0,4.337-2.796,4.362-3.115c0.125-1.653,1.575-2.887,3.218-2.765c1.652,0.125,2.89,1.566,2.765,3.218
	C80.18,102.055,77.726,107.721,70.063,107.721z M161.243,195.248c0-4.981-6.35-13.602-9.238-17.264
	c-0.404-0.672-2.681-4.692-1.667-7.987c2.018-6.561,7.484-26.196,8.534-38.097c0.94-10.653-1.955-20.076-4.754-29.19
	c-0.535-1.742-1.071-3.488-1.582-5.244c-1.899-6.541,0.046-16.537,2.104-27.12c0.959-4.929,1.951-10.026,2.607-15.061
	c2.083-15.97,3.783-49.659,3.854-51.085c0.062-1.244-0.459-2.446-1.409-3.251s-2.221-1.12-3.438-0.856l-44.161,9.635
	c-1.837,0.401-3.147,2.028-3.147,3.908c0,0.176,0.016,17.873,1.398,40.68c0.895,14.764,4.621,22.347,7.341,27.884
	c1.568,3.192,2.702,5.499,2.805,8.19c0.101,2.627-0.574,6.824-1.289,11.269c-1.585,9.854-3.558,22.116,0.59,30.515
	c4.736,9.591,8.234,40.54,5.271,46.642c-2.248,4.628-3.977,10.772-5.14,18.26c-0.314,2.025,0.27,4.079,1.602,5.635
	c1.334,1.557,3.276,2.45,5.329,2.45h27.379c1.878,0,3.642-0.731,4.967-2.06c1.324-1.327,2.05-3.09,2.046-4.965L161.243,195.248z
	 M146.785,99.157c-0.322,2.962-3.179,8.564-11.688,8.564c-7.664,0-10.117-5.666-10.344-8.662c-0.125-1.652,1.113-3.093,2.765-3.218
	c1.656-0.13,3.093,1.112,3.218,2.765c0.103,0.902,0.742,3.115,4.361,3.115c5.313,0,5.72-3.18,5.723-3.212
	c0.179-1.646,1.663-2.838,3.307-2.658C145.773,96.029,146.964,97.51,146.785,99.157z"/>
<g>
</g>
<g>
</g>
<g>
</g>
<g>
</g>
<g>
</g>
<g>
</g>
<g>
</g>
<g>
</g>
<g>
</g>
<g>
</g>
<g>
</g>
<g>
</g>
<g>
</g>
<g>
</g>
<g>
</g>
</svg>
