<svg height="512" viewBox="0 0 56 56" width="512" xmlns="http://www.w3.org/2000/svg"><g id="Page-1" fill="none" fill-rule="evenodd"><g id="023---Ripped" fill="rgb(0,0,0)" fill-rule="nonzero" transform="translate(-1)"><path id="Shape" d="m54.255 25.466c-.1146234-.2178187-.1448878-.4702597-.085-.709l1-4c.724-2.9.567-11.834-9.317-14.8-7.317-2.19-10.044-4.464-11.019-5.624-.311309-.21914629-.6833009-.33556857-1.064-.333h-9.54c-.3812988-.00246141-.7537713.11470132-1.065.335-.973 1.158-3.7 3.432-11.018 5.623-9.884 2.965-10.041 11.9-9.316 14.8l1 4c.05882447.2389088.02823633.4910831-.086.709-2.64750772 5.9271515-3.41530279 12.5232092-2.2 18.9.07108135.4332844.41146551.7724601.845.842l4.162.59c.43949344.0663343.86918165-.1689711 1.05-.575 1.42105673-3.1257742 2.660126-6.3311271 3.711-9.6-.063-.358-.128-.719-.2-1.107-.356-1.967-.8-4.416-1.247-8.411-1.042-9.37 4.068-14.6 4.286-14.818.3918367-.379565 1.0155809-.3750451 1.4018758.0101585.3862949.3852037.3925793 1.0089326.0141242 1.4018415-.061.062-4.644 4.823-3.715 13.185.44 3.926.877 6.338 1.228 8.276.086.475.168.924.244 1.364.3740931 2.1376726.5531627 4.304917.535 6.475.0342581 2.9820997-.116029 5.9634623-.45 8.927-.078.815-.168 1.752-.271 2.881-.0522454.5610145.1338563 1.1181369.5127927 1.5351191.3789363.4169821.9157674.6553761 1.4792073.6568809h27.74c.5630746-.0018105 1.0994638-.2401905 1.4781455-.6569116.3786818-.416721.5647863-.9734108.5128545-1.5340884-.1-1.131-.194-2.069-.272-2.884-.3334694-2.9629092-.4837551-5.9435753-.45-8.925-.0178656-2.165677.1605303-4.3285187.533-6.462.078-.45.16-.9.246-1.38.351-1.937.788-4.347 1.227-8.269.937-8.424-3.667-13.135-3.713-13.182-.3789722-.3923789-.3735524-1.0160848.0121814-1.4018186s1.0094397-.3911536 1.4018186-.0121814c.218.218 5.328 5.448 4.287 14.817-.447 3.991-.89 6.438-1.247 8.4-.07.388-.135.752-.2 1.114 1.0507377 3.2675644 2.2904947 6.4712994 3.713 9.595.1773827.4083073.6065808.6468873 1.047.582l4.166-.591c.4343196-.0694617.7754831-.4090141.847-.843 1.2149215-6.3775861.4453412-12.9743374-2.205-18.901zm-21.055-18.066c.3313708-.4418278.9581722-.53137085 1.4-.2 1.4358675 1.02491356 3.3641325 1.02491356 4.8 0 .4418278-.33137085 1.0686292-.2418278 1.4.2s.2418278 1.06862915-.2 1.4c-1.0817589.76766919-2.3735568 1.1838376-3.7 1.192-1.2663433.00040825-2.4971375-.41876509-3.5-1.192-.2121732-.15912989-.3524422-.39602771-.3899495-.65857864s.0308196-.52924817.1899495-.74142136zm7.8 15.6c0 .5522847-.4477153 1-1 1h-2c-.5522847 0-1-.4477153-1-1s.4477153-1 1-1h2c.5522847 0 1 .4477153 1 1zm-23.8-15.6c.3313708-.4418278.9581722-.53137085 1.4-.2 1.4341942 1.03012495 3.3658058 1.03012495 4.8 0 .2858125-.21435937.6642734-.25995645.9928203-.11961526.3285469.14034118.5572656.44529947.6.80000001.0427345.35470055-.1070078.7052559-.3928203.91961525-1.003079.77283151-2.2337315 1.1919566-3.5 1.192-1.3264432-.0081624-2.6182411-.42433081-3.7-1.192-.2121732-.15912989-.3524422-.39602771-.3899495-.65857864s.0308196-.52924817.1899495-.74142136zm.8 14.6h2c.5522847 0 1 .4477153 1 1s-.4477153 1-1 1h-2c-.5522847 0-1-.4477153-1-1s.4477153-1 1-1zm-2.365 4.227c2.9 2.38 5.834 2.381 8.729 0 .2761663-.2268636.6523848-.2891613.9869376-.1634261.3345529.1257352.5766135.4204011.635.773.0583866.3525988-.0757713.7095625-.3519376.9364261-1.5564168 1.3854074-3.5511932 2.1781487-5.634 2.239-2.0826797-.0605743-4.077441-.8529555-5.634-2.238zm17.435 17.773h1.289c1.1216467.0283694 2.1747312-.5382958 2.769-1.49.2706195-.4815923.8804077-.6526195 1.362-.382s.6526195.8804077.382 1.362c-.9422479 1.5886508-2.6663181 2.5475287-4.513 2.51h-1.289c-1.0985408.0007936-2.1705955-.3372354-3.07-.968v2.35c.1358582 1.5650358 1.5031493 2.7310189 3.07 2.618h1.289c1.1216467.0283694 2.1747312-.5382958 2.769-1.49.2706195-.4815923.8804077-.6526195 1.362-.382s.6526195.8804077.382 1.362c-.9422479 1.5886508-2.6663181 2.5475287-4.513 2.51h-1.289c-1.572191.0146433-3.0672674-.6799978-4.07-1.891-1.0027326 1.2110022-2.497809 1.9056433-4.07 1.891h-1.289c-1.8466819.0375287-3.5707521-.9213492-4.513-2.51-.1750602-.3115356-.1706201-.6927998.0116475-1.0001742.1822677-.3073743.5146722-.4941613.872-.49.3573279.0041613.6852924.1986386.8603525.5101742.5942688.9517042 1.6473533 1.5183694 2.769 1.49h1.289c1.5668507.1130189 2.9341418-1.0529642 3.07-2.618v-2.35c-.8994045.6307646-1.9714592.9687936-3.07.968h-1.289c-1.8466819.0375287-3.5707521-.9213492-4.513-2.51-.1750602-.3115356-.1706201-.6927998.0116475-1.0001742.1822677-.3073743.5146722-.4941613.872-.49.3573279.0041613.6852924.1986386.8603525.5101742.5942688.9517042 1.6473533 1.5183694 2.769 1.49h1.289c1.5668507.1130189 2.9341418-1.0529642 3.07-2.618v-2.35c-.8994045.6307646-1.9714592.9687936-3.07.968h-1.289c-1.8466819.0375287-3.5707521-.9213492-4.513-2.51-.1750602-.3115356-.1706201-.6927998.0116475-1.0001742.1822677-.3073743.5146722-.4941613.872-.49.3573279.0041613.6852924.1986386.8603525.5101742.5942688.9517042 1.6473533 1.5183694 2.769 1.49h1.289c1.5668507.1130189 2.9341418-1.0529642 3.07-2.618v-3.382c0-.5522847.4477153-1 1-1s1 .4477153 1 1v3.382c.1358582 1.5650358 1.5031493 2.7310189 3.07 2.618h1.289c1.1216467.0283694 2.1747312-.5382958 2.769-1.49.2706195-.4815923.8804077-.6526195 1.362-.382s.6526195.8804077.382 1.362c-.9422479 1.5886508-2.6663181 2.5475287-4.513 2.51h-1.289c-1.0985408.0007936-2.1705955-.3372354-3.07-.968v2.35c.1358582 1.5650358 1.5031493 2.7310189 3.07 2.618zm9.294-17.772c.4269161-.3507008 1.0572991-.288916 1.4079999.138.3507008.4269161.2889162 1.0572992-.1379999 1.408-1.556559 1.3850445-3.5513203 2.1774257-5.634 2.238-2.0826797-.0605743-4.077441-.8529555-5.634-2.238l1.269-1.547c2.896 2.38 5.834 2.381 8.729.001z"/></g></g></svg>