# Blender v2.77 (sub 0) OBJ File: 'free grass by adam127.blend'
# www.blender.org
mtllib free grass by adam127.mtl
o free_grass
v -0.192843 0.000000 -1.787765
v 0.192843 0.000000 1.787765
v -0.205069 3.824270 -1.901107
v 0.205069 3.824270 1.901107
v -1.543872 -0.000000 1.128148
v 1.543872 -0.000000 -1.128148
v -1.543873 3.419215 1.128148
v 1.543872 3.419215 -1.128148
v -1.809653 -0.000000 -0.617587
v 1.809653 -0.000000 0.617587
v -1.809654 4.322569 -0.617588
v 1.809654 4.322569 0.617587
vt 0.0000 0.0000
vt 1.0000 0.0000
vt 1.0000 1.0000
vt 0.0000 1.0000
vt 0.0000 0.0000
vt 1.0000 0.0000
vt 1.0000 1.0000
vt 0.0000 1.0000
vt 0.0000 0.0000
vt 1.0000 0.0000
vt 1.0000 1.0000
vt 0.0000 1.0000
vn -0.9942 0.0000 0.1072
vn 0.5900 0.0000 0.8074
vn -0.3230 0.0000 0.9464
usemtl free_grass
s off
f 1/1/1 2/2/1 4/3/1 3/4/1
f 5/5/2 6/6/2 8/7/2 7/8/2
f 9/9/3 10/10/3 12/11/3 11/12/3
